<svg width="23" height="20" viewBox="0 0 23 20" fill="none" xmlns="http://www.w3.org/2000/svg">
<path d="M1.34375 3.94531H21.6562C22.0877 3.94531 22.4375 3.59556 22.4375 3.16406V1.21094C22.4375 0.779443 22.0877 0.429688 21.6562 0.429688H1.34375C0.912256 0.429688 0.5625 0.779443 0.5625 1.21094V3.16406C0.5625 3.59556 0.912256 3.94531 1.34375 3.94531ZM1.34375 11.7578H21.6562C22.0877 11.7578 22.4375 11.4081 22.4375 10.9766V9.02344C22.4375 8.59194 22.0877 8.24219 21.6562 8.24219H1.34375C0.912256 8.24219 0.5625 8.59194 0.5625 9.02344V10.9766C0.5625 11.4081 0.912256 11.7578 1.34375 11.7578ZM1.34375 19.5703H21.6562C22.0877 19.5703 22.4375 19.2206 22.4375 18.7891V16.8359C22.4375 16.4044 22.0877 16.0547 21.6562 16.0547H1.34375C0.912256 16.0547 0.5625 16.4044 0.5625 16.8359V18.7891C0.5625 19.2206 0.912256 19.5703 1.34375 19.5703Z" fill="black"/>
</svg>
