<svg width="22" height="15" viewBox="0 0 22 15" fill="none" xmlns="http://www.w3.org/2000/svg">
<path d="M18 11.5H20C20.6 11.5 21 11.1 21 10.5V7.5C21 6.6 20.3 5.8 19.5 5.6C17.7 5.1 15 4.5 15 4.5C15 4.5 13.7 3.1 12.8 2.2C12.3 1.8 11.7 1.5 11 1.5H4C3.4 1.5 2.9 1.9 2.6 2.4L1.2 5.3C1.06758 5.68623 1 6.0917 1 6.5V10.5C1 11.1 1.4 11.5 2 11.5H4M18 11.5C18 12.6046 17.1046 13.5 16 13.5C14.8954 13.5 14 12.6046 14 11.5M18 11.5C18 10.3954 17.1046 9.5 16 9.5C14.8954 9.5 14 10.3954 14 11.5M4 11.5C4 12.6046 4.89543 13.5 6 13.5C7.10457 13.5 8 12.6046 8 11.5M4 11.5C4 10.3954 4.89543 9.5 6 9.5C7.10457 9.5 8 10.3954 8 11.5M8 11.5H14" stroke="black" stroke-width="1.5" stroke-linecap="round" stroke-linejoin="round"/>
</svg>
