<svg width="17" height="17" viewBox="0 0 17 17" fill="none" xmlns="http://www.w3.org/2000/svg">
<path d="M11.5 5.5H7C6.60218 5.5 6.22064 5.65804 5.93934 5.93934C5.65804 6.22064 5.5 6.60218 5.5 7C5.5 7.39782 5.65804 7.77936 5.93934 8.06066C6.22064 8.34196 6.60218 8.5 7 8.5H10C10.3978 8.5 10.7794 8.65804 11.0607 8.93934C11.342 9.22064 11.5 9.60218 11.5 10C11.5 10.3978 11.342 10.7794 11.0607 11.0607C10.7794 11.342 10.3978 11.5 10 11.5H5.5M8.5 13V4M16 8.5C16 12.6421 12.6421 16 8.5 16C4.35786 16 1 12.6421 1 8.5C1 4.35786 4.35786 1 8.5 1C12.6421 1 16 4.35786 16 8.5Z" stroke="black" stroke-width="1.5" stroke-linecap="round" stroke-linejoin="round"/>
</svg>
