<svg width="16" height="13" viewBox="0 0 16 13" fill="none" xmlns="http://www.w3.org/2000/svg">
<path d="M0.615385 2.36332H9.33654C9.46387 2.70884 9.6996 3.00798 10.0113 3.21955C10.3229 3.43112 10.6952 3.54472 11.0769 3.54472C11.4586 3.54472 11.8309 3.43112 12.1426 3.21955C12.4542 3.00798 12.69 2.70884 12.8173 2.36332H15.3846C15.5478 2.36332 15.7044 2.30105 15.8198 2.19023C15.9352 2.0794 16 1.92909 16 1.77236C16 1.61563 15.9352 1.46532 15.8198 1.35449C15.7044 1.24367 15.5478 1.18141 15.3846 1.18141H12.8173C12.69 0.835877 12.4542 0.536742 12.1426 0.325172C11.8309 0.113603 11.4586 0 11.0769 0C10.6952 0 10.3229 0.113603 10.0113 0.325172C9.6996 0.536742 9.46387 0.835877 9.33654 1.18141H0.615385C0.452174 1.18141 0.295649 1.24367 0.180242 1.35449C0.064835 1.46532 0 1.61563 0 1.77236C0 1.92909 0.064835 2.0794 0.180242 2.19023C0.295649 2.30105 0.452174 2.36332 0.615385 2.36332ZM15.3846 10.6367H12.8173C12.69 10.2912 12.4542 9.99202 12.1426 9.78045C11.8309 9.56888 11.4586 9.45528 11.0769 9.45528C10.6952 9.45528 10.3229 9.56888 10.0113 9.78045C9.6996 9.99202 9.46387 10.2912 9.33654 10.6367H0.615385C0.452174 10.6367 0.295649 10.6989 0.180242 10.8098C0.064835 10.9206 0 11.0709 0 11.2276C0 11.3844 0.064835 11.5347 0.180242 11.6455C0.295649 11.7563 0.452174 11.8186 0.615385 11.8186H9.33654C9.46387 12.1641 9.6996 12.4633 10.0113 12.6748C10.3229 12.8864 10.6952 13 11.0769 13C11.4586 13 11.8309 12.8864 12.1426 12.6748C12.4542 12.4633 12.69 12.1641 12.8173 11.8186H15.3846C15.5478 11.8186 15.7044 11.7563 15.8198 11.6455C15.9352 11.5347 16 11.3844 16 11.2276C16 11.0709 15.9352 10.9206 15.8198 10.8098C15.7044 10.6989 15.5478 10.6367 15.3846 10.6367ZM15.3846 5.90905H6.66346C6.53613 5.56352 6.3004 5.26438 5.98873 5.05281C5.67705 4.84124 5.30476 4.72764 4.92308 4.72764C4.5414 4.72764 4.1691 4.84124 3.85743 5.05281C3.54575 5.26438 3.31003 5.56352 3.18269 5.90905H0.615385C0.452174 5.90905 0.295649 5.97131 0.180242 6.08213C0.064835 6.19296 0 6.34327 0 6.5C0 6.65673 0.064835 6.80704 0.180242 6.91787C0.295649 7.02869 0.452174 7.09096 0.615385 7.09096H3.18269C3.31003 7.43648 3.54575 7.73562 3.85743 7.94719C4.1691 8.15876 4.5414 8.27236 4.92308 8.27236C5.30476 8.27236 5.67705 8.15876 5.98873 7.94719C6.3004 7.73562 6.53613 7.43648 6.66346 7.09096H15.3846C15.5478 7.09096 15.7044 7.02869 15.8198 6.91787C15.9352 6.80704 16 6.65673 16 6.5C16 6.34327 15.9352 6.19296 15.8198 6.08213C15.7044 5.97131 15.5478 5.90905 15.3846 5.90905Z" fill="#71717A"/>
</svg>
