<svg width="22" height="22" viewBox="0 0 22 22" fill="none" xmlns="http://www.w3.org/2000/svg">
<path d="M13.7501 4.58336L17.4168 8.25002M19.4096 6.24436C19.8943 5.75983 20.1666 5.10262 20.1667 4.41731C20.1667 3.73199 19.8946 3.07472 19.4101 2.59007C18.9255 2.10542 18.2683 1.83309 17.583 1.83301C16.8977 1.83292 16.2404 2.10508 15.7558 2.58961L3.52194 14.8262C3.3091 15.0384 3.15171 15.2997 3.0636 15.587L1.85269 19.5764C1.829 19.6556 1.82721 19.7398 1.84751 19.8201C1.86781 19.9003 1.90945 19.9735 1.968 20.0319C2.02655 20.0904 2.09984 20.1319 2.18008 20.1521C2.26032 20.1723 2.34453 20.1703 2.42377 20.1465L6.41402 18.9365C6.70109 18.8492 6.96235 18.6928 7.17485 18.4809L19.4096 6.24436Z" stroke="currentColor" stroke-width="2" stroke-linecap="round" stroke-linejoin="round"/>
</svg>
