<svg width="15" height="17" viewBox="0 0 15 17" fill="none" xmlns="http://www.w3.org/2000/svg">
<path d="M13.5 7C13.5 11.5 7.5 16 7.5 16C7.5 16 1.5 11.5 1.5 7C1.5 5.4087 2.13214 3.88258 3.25736 2.75736C4.38258 1.63214 5.9087 1 7.5 1C9.0913 1 10.6174 1.63214 11.7426 2.75736C12.8679 3.88258 13.5 5.4087 13.5 7Z" stroke="black" stroke-width="1.5" stroke-linecap="round" stroke-linejoin="round"/>
<path d="M7.5 9.25C8.74264 9.25 9.75 8.24264 9.75 7C9.75 5.75736 8.74264 4.75 7.5 4.75C6.25736 4.75 5.25 5.75736 5.25 7C5.25 8.24264 6.25736 9.25 7.5 9.25Z" stroke="black" stroke-width="1.5" stroke-linecap="round" stroke-linejoin="round"/>
</svg>
