<svg width="23" height="17" viewBox="0 0 23 17" fill="none" xmlns="http://www.w3.org/2000/svg">
<path d="M7.5 1.5V7.5M14.5 1.5V7.5M1.5 7.5H21.1M17.5 13.5H20.5C20.5 13.5 21 11.8 21.3 10.7C21.4 10.3 21.5 9.9 21.5 9.5C21.5 9.1 21.4 8.7 21.3 8.3L19.9 3.3C19.6 2.3 18.6 1.5 17.5 1.5H3.5C2.96957 1.5 2.46086 1.71071 2.08579 2.08579C1.71071 2.46086 1.5 2.96957 1.5 3.5V13.5H4.5M17.5 13.5C17.5 14.6046 16.6046 15.5 15.5 15.5C14.3954 15.5 13.5 14.6046 13.5 13.5M17.5 13.5C17.5 12.3954 16.6046 11.5 15.5 11.5C14.3954 11.5 13.5 12.3954 13.5 13.5M4.5 13.5C4.5 14.6046 5.39543 15.5 6.5 15.5C7.60457 15.5 8.5 14.6046 8.5 13.5M4.5 13.5C4.5 12.3954 5.39543 11.5 6.5 11.5C7.60457 11.5 8.5 12.3954 8.5 13.5M8.5 13.5H13.5" stroke="#09090B" stroke-width="1.5" stroke-linecap="round" stroke-linejoin="round"/>
</svg>
